<svg xmlns="http://www.w3.org/2000/svg" viewBox="0 0 27 27"><path d="M1 1h7v7h-7zM9 1h3v3h-1v2h-2v-1h1v-1h-1zM13 1h1v2h1v2h-2zM15 1h1v1h-1zM17 1h1v2h-1zM19 1h7v7h-7zM2 2v5h5v-5zM10 2v1h1v-1zM20 2v5h5v-5zM3 3h3v3h-3zM16 3h1v1h1v2h-1v-1h-1zM21 3h3v3h-3zM12 5h1v1h-1zM15 5h1v1h-1zM11 6h1v3h1v1h-2zM14 6h1v1h-1zM9 7h1v1h-1zM13 7h1v1h-1zM15 7h1v1h1v-1h1v2h1v2h-1v-1h-1v-1h-1v1h-1v-1h-1v-1h1zM1 9h1v1h-1zM4 9h6v1h1v1h-1v1h1v1h2v1h-4v1h-1v-1h-1v-1h2v-3h-2v1h-1v-1h-1v1h-1zM21 9h1v1h1v-1h3v1h-1v1h-2v1h2v-1h1v3h-1v-1h-3v-1h-1v-1h-1v-1h1zM2 10h1v1h1v1h-2zM16 10h1v1h1v4h2v1h1v1h1v5h-2v1h-1v2h-1v-1h-1v-1h-1v-2h1v-4h2v-1h-2v1h-3v1h-1v1h-1v-1h-1v-3h1v2h1v-1h2v-2h-1v-1h2v-1h-2v-1h2zM5 11h1v1h1v1h-1v1h1v1h1v1h-1v1h-1v1h-1v-1h-2v-1h-1v2h-1v-6h1v1h2v1h-1v1h1v1h1v-1h-1v-1h1zM7 11h1v1h-1zM12 11h1v1h-1zM19 11h1v3h-1zM13 14h1v1h-1zM21 14h1v1h2v-1h1v1h1v2h-1v-1h-1v1h1v2h-2v-2h-1v-1h-1zM9 15h1v1h-1zM7 17h1v1h-1zM9 17h1v1h1v1h1v1h-1v2h-1v1h-1zM18 18v3h3v-3zM1 19h7v7h-7zM13 19h3v1h-1v6h-4v-2h-1v-1h1v-1h1v1h1v1h1v-1h-1v-1h1v-2h-1zM19 19h1v1h-1zM25 19h1v7h-1v-1h-2v-1h-1v1h-2v-1h1v-1h3v-2h1zM2 20v5h5v-5zM12 20h1v2h-1zM3 21h3v3h-3zM9 25h1v1h-1zM17 25h1v1h-1zM19 25h1v1h-1zM22 25h1v1h-1z"/></svg>